<svg width="16" height="16" viewBox="0 0 16 16" fill="none" xmlns="http://www.w3.org/2000/svg">
<path fill-rule="evenodd" clip-rule="evenodd" d="M9.83146 1H14.1129L14.8779 1.76781V6.0464C14.8779 6.46871 14.5355 6.81106 14.1132 6.81106C13.6909 6.81106 13.3485 6.46871 13.3485 6.0464V3.61073L7.00653 9.95273C6.70791 10.2513 6.22375 10.2513 5.92514 9.95273C5.62652 9.65411 5.62652 9.16995 5.92514 8.87133L12.2671 2.52932H9.83146C9.40915 2.52932 9.0668 2.18697 9.0668 1.76466C9.0668 1.34235 9.40915 1 9.83146 1ZM14.1129 1L14.8779 1.76466C14.8779 1.75021 14.8775 1.73585 14.8767 1.72159C14.8665 1.54049 14.7923 1.36232 14.6539 1.22396C14.58 1.15007 14.4947 1.09446 14.4037 1.05713C14.3142 1.02031 14.2161 1 14.1132 1H14.1129ZM2.5 5C2.5 4.86193 2.61193 4.75 2.75 4.75H6.75C7.16421 4.75 7.5 4.41421 7.5 4C7.5 3.58579 7.16421 3.25 6.75 3.25H2.75C1.7835 3.25 1 4.0335 1 5V13C1 13.9665 1.7835 14.75 2.75 14.75H10.75C11.7165 14.75 12.5 13.9665 12.5 13V9C12.5 8.58579 12.1642 8.25 11.75 8.25C11.3358 8.25 11 8.58579 11 9V13C11 13.1381 10.8881 13.25 10.75 13.25H2.75C2.61193 13.25 2.5 13.1381 2.5 13V5Z" fill="#151417"/>
</svg>
