<svg width="272" height="32" viewBox="0 0 272 32" fill="none" xmlns="http://www.w3.org/2000/svg">
<path d="M32 0H268C270.209 0 272 1.79086 272 4V28C272 30.2091 270.209 32 268 32H32V0Z" fill="#0655FF" class="gmail-svg-background"/>
<path d="M90.6391 21V19.404H86.0891V11.074H84.4091V21H90.6391ZM94.894 19.754C93.9 19.754 92.99 18.998 92.99 17.584C92.99 16.17 93.9 15.442 94.894 15.442C95.902 15.442 96.798 16.17 96.798 17.584C96.798 19.012 95.902 19.754 94.894 19.754ZM94.894 13.972C92.864 13.972 91.366 15.498 91.366 17.584C91.366 19.684 92.864 21.21 94.894 21.21C96.938 21.21 98.436 19.684 98.436 17.584C98.436 15.498 96.938 13.972 94.894 13.972ZM99.5828 21.378C99.7648 22.75 101.025 23.87 102.831 23.87C105.393 23.87 106.331 22.176 106.331 20.356V14.182H104.763V15.05C104.469 14.49 103.811 14.056 102.747 14.056C100.871 14.056 99.5968 15.554 99.5968 17.374C99.5968 19.292 100.927 20.692 102.747 20.692C103.741 20.692 104.427 20.23 104.721 19.698V20.412C104.721 21.798 104.077 22.456 102.789 22.456C101.851 22.456 101.193 21.826 101.081 20.986L99.5828 21.378ZM103.013 19.306C101.949 19.306 101.235 18.564 101.235 17.374C101.235 16.212 101.977 15.456 103.013 15.456C104.021 15.456 104.763 16.212 104.763 17.374C104.763 18.55 104.049 19.306 103.013 19.306ZM109.953 21V14.182H108.343V21H109.953ZM108.091 11.788C108.091 12.376 108.567 12.838 109.141 12.838C109.729 12.838 110.205 12.376 110.205 11.788C110.205 11.2 109.729 10.724 109.141 10.724C108.567 10.724 108.091 11.2 108.091 11.788ZM113.59 17.066C113.59 16.17 114.08 15.456 115.004 15.456C116.026 15.456 116.404 16.128 116.404 16.968V21H118.028V16.688C118.028 15.19 117.23 13.986 115.564 13.986C114.808 13.986 113.996 14.308 113.548 15.092V14.182H111.966V21H113.59V17.066ZM127.058 14.182L125.448 18.9L124.062 14.182H122.326L124.538 21H126.204L127.856 16.1L129.55 21H131.174L133.358 14.182H131.706L130.348 18.9L128.738 14.182H127.058ZM136.244 21V14.182H134.634V21H136.244ZM134.382 11.788C134.382 12.376 134.858 12.838 135.432 12.838C136.02 12.838 136.496 12.376 136.496 11.788C136.496 11.2 136.02 10.724 135.432 10.724C134.858 10.724 134.382 11.2 134.382 11.788ZM140.399 12.096H138.929V13.118C138.929 13.72 138.607 14.182 137.879 14.182H137.529V15.624H138.789V19.054C138.789 20.328 139.573 21.084 140.833 21.084C141.421 21.084 141.729 20.972 141.827 20.93V19.586C141.757 19.6 141.491 19.642 141.267 19.642C140.665 19.642 140.399 19.39 140.399 18.788V15.624H141.813V14.182H140.399V12.096ZM144.994 16.996C145.022 16.128 145.512 15.456 146.408 15.456C147.43 15.456 147.808 16.128 147.808 16.968V21H149.432V16.688C149.432 15.19 148.62 13.986 146.94 13.986C146.226 13.986 145.456 14.238 144.994 14.84V10.864H143.37V21H144.994V16.996ZM163.803 21V15.974H158.945V17.444H162.221C162.137 18.298 161.381 19.67 159.379 19.67C157.671 19.67 156.103 18.452 156.103 16.03C156.103 13.566 157.783 12.418 159.393 12.418C160.975 12.418 161.955 13.37 162.291 14.49L163.873 13.888C163.341 12.25 161.801 10.864 159.393 10.864C156.817 10.864 154.395 12.768 154.395 16.03C154.395 19.306 156.691 21.21 159.281 21.21C160.863 21.21 161.885 20.468 162.319 19.74L162.445 21H163.803ZM168.749 19.754C167.755 19.754 166.845 18.998 166.845 17.584C166.845 16.17 167.755 15.442 168.749 15.442C169.757 15.442 170.653 16.17 170.653 17.584C170.653 19.012 169.757 19.754 168.749 19.754ZM168.749 13.972C166.719 13.972 165.221 15.498 165.221 17.584C165.221 19.684 166.719 21.21 168.749 21.21C170.793 21.21 172.291 19.684 172.291 17.584C172.291 15.498 170.793 13.972 168.749 13.972ZM176.966 19.754C175.972 19.754 175.062 18.998 175.062 17.584C175.062 16.17 175.972 15.442 176.966 15.442C177.974 15.442 178.87 16.17 178.87 17.584C178.87 19.012 177.974 19.754 176.966 19.754ZM176.966 13.972C174.936 13.972 173.438 15.498 173.438 17.584C173.438 19.684 174.936 21.21 176.966 21.21C179.01 21.21 180.508 19.684 180.508 17.584C180.508 15.498 179.01 13.972 176.966 13.972ZM181.655 21.378C181.837 22.75 183.097 23.87 184.903 23.87C187.465 23.87 188.403 22.176 188.403 20.356V14.182H186.835V15.05C186.541 14.49 185.883 14.056 184.819 14.056C182.943 14.056 181.669 15.554 181.669 17.374C181.669 19.292 182.999 20.692 184.819 20.692C185.813 20.692 186.499 20.23 186.793 19.698V20.412C186.793 21.798 186.149 22.456 184.861 22.456C183.923 22.456 183.265 21.826 183.153 20.986L181.655 21.378ZM185.085 19.306C184.021 19.306 183.307 18.564 183.307 17.374C183.307 16.212 184.049 15.456 185.085 15.456C186.093 15.456 186.835 16.212 186.835 17.374C186.835 18.55 186.121 19.306 185.085 19.306ZM192.039 21V10.864H190.415V21H192.039ZM195.284 16.842C195.34 16.114 195.928 15.33 196.95 15.33C198.07 15.33 198.602 16.044 198.63 16.842H195.284ZM198.812 18.62C198.588 19.292 198.084 19.81 197.104 19.81C196.096 19.81 195.284 19.068 195.242 18.032H200.226C200.24 18.004 200.268 17.78 200.268 17.514C200.268 15.358 199.036 13.972 196.936 13.972C195.214 13.972 193.618 15.4 193.618 17.556C193.618 19.866 195.256 21.21 197.104 21.21C198.742 21.21 199.82 20.244 200.184 19.054L198.812 18.62Z" fill="white"/>
<path fill-rule="evenodd" clip-rule="evenodd" d="M214.831 9H219.113L219.878 9.76781V14.0464C219.878 14.4687 219.536 14.8111 219.113 14.8111C218.691 14.8111 218.349 14.4687 218.349 14.0464V11.6107L212.007 17.9527C211.708 18.2513 211.224 18.2513 210.925 17.9527C210.627 17.6541 210.627 17.1699 210.925 16.8713L217.267 10.5293H214.831C214.409 10.5293 214.067 10.187 214.067 9.76466C214.067 9.34235 214.409 9 214.831 9ZM219.113 9L219.878 9.76466C219.878 9.75021 219.877 9.73585 219.877 9.72159C219.867 9.54049 219.792 9.36232 219.654 9.22396C219.58 9.15007 219.495 9.09446 219.404 9.05713C219.314 9.02031 219.216 9 219.113 9H219.113ZM207.5 13C207.5 12.8619 207.612 12.75 207.75 12.75H211.75C212.164 12.75 212.5 12.4142 212.5 12C212.5 11.5858 212.164 11.25 211.75 11.25H207.75C206.784 11.25 206 12.0335 206 13V21C206 21.9665 206.784 22.75 207.75 22.75H215.75C216.716 22.75 217.5 21.9665 217.5 21V17C217.5 16.5858 217.164 16.25 216.75 16.25C216.336 16.25 216 16.5858 216 17V21C216 21.1381 215.888 21.25 215.75 21.25H207.75C207.612 21.25 207.5 21.1381 207.5 21V13Z" fill="white"/>
<path d="M23.6832 16.1841C23.6832 15.6403 23.6392 15.0936 23.5451 14.5586H15.9995V17.6391H20.3205C20.1412 18.6327 19.5651 19.5116 18.7214 20.0701V22.0689H21.2994C22.8132 20.6756 23.6832 18.618 23.6832 16.1841Z" fill="#4285F4"/>
<path d="M15.9998 24C18.1574 24 19.9769 23.2916 21.3026 22.0688L18.7247 20.07C18.0075 20.5579 17.0816 20.8342 16.0028 20.8342C13.9158 20.8342 12.1462 19.4262 11.5113 17.5332H8.85107V19.5938C10.2091 22.2951 12.9751 24 15.9998 24Z" fill="#34A853"/>
<path d="M11.5082 17.5331C11.1731 16.5396 11.1731 15.4638 11.5082 14.4702V12.4097H8.85097C7.71634 14.6701 7.71634 17.3333 8.85097 19.5937L11.5082 17.5331Z" fill="#FBBC04"/>
<path d="M15.9998 11.1663C17.1403 11.1487 18.2426 11.5779 19.0686 12.3656L21.3526 10.0817C19.9064 8.72365 17.9869 7.97702 15.9998 8.00054C12.9751 8.00054 10.2091 9.70542 8.85107 12.4097L11.5083 14.4703C12.1403 12.5743 13.9128 11.1663 15.9998 11.1663Z" fill="#EA4335"/>
<path d="M0.5 4C0.5 2.067 2.067 0.5 4 0.5H31.5V31.5H4C2.067 31.5 0.5 29.933 0.5 28V4Z" stroke="#0655FF" class="gmail-svg-border"/>
</svg>
