<svg xmlns="http://www.w3.org/2000/svg" width="216" height="62" viewBox="0 0 216 62" fill="none"><rect width="216" height="62" fill="white"></rect><g clip-path="url(#clip0)"><path d="M112.216 14.0602C112.216 15.7901 110.803 17.1831 109.049 17.1831C107.295 17.1831 105.882 15.7901 105.882 14.0602C105.882 12.3304 107.246 10.9374 109.049 10.9374C110.853 10.9854 112.216 12.3788 112.216 14.0602ZM99.1588 20.3548V21.1238C99.1588 21.1238 97.6491 19.2009 94.4334 19.2009C89.1234 19.2009 84.9815 23.1892 84.9815 28.7143C84.9815 34.192 89.0747 38.2277 94.4334 38.2277C97.6977 38.2277 99.1588 36.2579 99.1588 36.2579V37.0743C99.1588 37.4588 99.4518 37.7463 99.8412 37.7463H103.787V19.68H99.8412C99.4518 19.6814 99.1588 20.0184 99.1588 20.3548ZM99.1588 31.9336C98.4288 32.9911 96.9667 33.904 95.2131 33.904C92.0952 33.904 89.7074 31.9821 89.7074 28.7143C89.7074 25.4471 92.0952 23.5252 95.2131 23.5252C96.9185 23.5252 98.4774 24.4861 99.1588 25.495V31.9336ZM106.711 19.6814H111.387V37.7478H106.711V19.6814ZM176.575 19.2005C173.36 19.2005 171.849 21.1233 171.849 21.1233V10.9854H167.172V37.7478H171.119C171.509 37.7478 171.8 37.4113 171.8 37.0748V36.2584C171.8 36.2584 173.311 38.2282 176.526 38.2282C181.837 38.2282 185.978 34.1934 185.978 28.7158C185.978 23.2381 181.837 19.2005 176.575 19.2005ZM175.796 33.8555C173.992 33.8555 172.58 32.9435 171.849 31.8856V25.447C172.58 24.4861 174.139 23.4772 175.796 23.4772C178.914 23.4772 181.301 25.399 181.301 28.6663C181.301 31.9336 178.914 33.8555 175.796 33.8555ZM164.737 27.0334V37.7958H160.059V27.5614C160.059 24.5831 159.085 23.3812 156.455 23.3812C155.043 23.3812 153.581 24.1021 152.654 25.1595V37.7483H147.978V19.6819H151.679C152.069 19.6819 152.362 20.0184 152.362 20.3548V21.1238C153.726 19.7299 155.528 19.2009 157.33 19.2009C159.377 19.2009 161.082 19.7784 162.447 20.9313C164.103 22.2767 164.737 24.0061 164.737 27.0334ZM136.624 19.2005C133.41 19.2005 131.899 21.1233 131.899 21.1233V10.9854H127.222V37.7478H131.168C131.558 37.7478 131.85 37.4113 131.85 37.0748V36.2584C131.85 36.2584 133.361 38.2282 136.576 38.2282C141.887 38.2282 146.028 34.1934 146.028 28.7158C146.076 23.2376 141.935 19.2005 136.624 19.2005ZM135.845 33.8555C134.042 33.8555 132.63 32.9435 131.899 31.8856V25.447C132.63 24.4861 134.189 23.4772 135.845 23.4772C138.963 23.4772 141.35 25.399 141.35 28.6663C141.35 31.9336 138.963 33.8555 135.845 33.8555ZM123.178 19.2005C124.59 19.2005 125.321 19.4414 125.321 19.4414V23.7172C125.321 23.7172 121.424 22.4197 118.988 25.159V37.7953H114.311V19.6814H118.257C118.647 19.6814 118.939 20.0179 118.939 20.3544V21.1233C119.817 20.1139 121.717 19.2005 123.178 19.2005ZM74.6048 36.1139C74.3614 35.5374 74.1176 34.9129 73.8742 34.384C73.4839 33.5195 73.0941 32.7021 72.7538 31.9336L72.7052 31.8856C69.343 24.6781 65.7384 17.3755 61.9377 10.169L61.7917 9.87999C61.3919 9.13239 61.0024 8.37955 60.6231 7.62165C60.1354 6.75622 59.6487 5.84424 58.869 4.97881C57.31 3.05693 55.0687 1.99951 52.6819 1.99951C50.2454 1.99951 48.0533 3.05694 46.4462 4.88234C45.7151 5.7468 45.1788 6.65975 44.6921 7.52517C44.3118 8.2826 43.9223 9.03543 43.5235 9.78352L43.377 10.0725C39.6254 17.279 35.9717 24.5821 32.61 31.7892L32.5608 31.8847C32.2201 32.6546 31.8298 33.471 31.4399 34.335C31.1966 34.864 30.9532 35.4404 30.7099 36.0649C30.0762 37.8423 29.881 39.5242 30.1253 41.2546C30.6612 44.8583 33.0967 47.8842 36.4589 49.2306C37.7258 49.7595 39.0414 49.9995 40.4051 49.9995C40.795 49.9995 41.2817 49.9515 41.6721 49.903C43.2801 49.7111 44.9364 49.183 46.5445 48.2701C48.542 47.1647 50.4421 45.5798 52.5855 43.2734C54.729 45.5798 56.6778 47.1647 58.6266 48.2701C60.2352 49.183 61.8909 49.7111 63.4986 49.903C63.8884 49.952 64.3761 49.9995 64.7659 49.9995C66.1302 49.9995 67.494 49.7595 68.7117 49.2306C72.1226 47.8842 74.5094 44.8103 75.0458 41.2546C75.4327 39.5732 75.238 37.8923 74.6048 36.1139ZM52.6328 38.6122C50.0016 35.3449 48.2962 32.2701 47.7121 29.6762C47.4688 28.5708 47.4196 27.6099 47.5661 26.7449C47.663 25.976 47.956 25.303 48.3458 24.7266C49.2715 23.4301 50.8305 22.6127 52.6332 22.6127C54.4365 22.6127 56.0441 23.3816 56.9212 24.7266C57.311 25.303 57.603 25.9765 57.7014 26.7449C57.8469 27.6104 57.7982 28.6188 57.5549 29.6762C56.9684 32.2221 55.2629 35.2974 52.6328 38.6122ZM72.071 40.8706C71.7303 43.3689 70.0248 45.5318 67.638 46.4927C66.4689 46.9727 65.2016 47.1172 63.9356 46.9727C62.7179 46.8282 61.4992 46.4437 60.2332 45.7238C58.4791 44.7619 56.7255 43.2734 54.6789 41.0626C57.8941 37.1713 59.8429 33.6151 60.5739 30.4447C60.9151 28.9548 60.9643 27.6099 60.8173 26.36C60.6231 25.1591 60.1841 24.0536 59.5022 23.0927C57.9909 20.9299 55.4571 19.6814 52.6323 19.6814C49.8074 19.6814 47.2736 20.9788 45.7633 23.0927C45.0814 24.0536 44.6424 25.1591 44.4477 26.36C44.2531 27.6099 44.3012 29.0028 44.6911 30.4447C45.4217 33.6151 47.4191 37.2188 50.5857 41.1106C48.5882 43.3209 46.7854 44.8108 45.0313 45.7718C43.7644 46.4927 42.5472 46.8772 41.3294 47.0207C40.0143 47.1652 38.7469 46.9727 37.6265 46.5407C35.2397 45.5798 33.5343 43.4169 33.1936 40.9186C33.0475 39.7176 33.1444 38.5167 33.6321 37.1713C33.7776 36.6903 34.0219 36.2104 34.2653 35.6339C34.6065 34.8649 34.9954 34.0475 35.3857 33.2311L35.4349 33.1355C38.7961 25.976 42.4011 18.6729 46.1527 11.5624L46.2987 11.2734C46.6891 10.5534 47.0789 9.78448 47.4683 9.06354C47.8581 8.29459 48.2962 7.57364 48.8325 6.9487C49.8556 5.79672 51.2193 5.17129 52.7301 5.17129C54.2408 5.17129 55.6046 5.79672 56.6277 6.9487C57.164 7.57508 57.6021 8.29603 57.9919 9.06354C58.3823 9.78448 58.7721 10.5534 59.161 11.2734L59.3075 11.5624C63.0019 18.7025 66.559 25.9108 69.9772 33.1835V33.2315C70.3675 34.0014 70.7082 34.8654 71.098 35.6353C71.3414 36.2108 71.5852 36.6908 71.7313 37.1718C72.1201 38.4198 72.2662 39.6217 72.071 40.8706Z" fill="#8B8B8B"></path></g><defs><clipPath id="clip0"><rect width="156" height="48" fill="white" transform="translate(30 2)"></rect></clipPath></defs></svg>