<svg xmlns="http://www.w3.org/2000/svg" width="216" height="62" viewBox="0 0 216 62" fill="none"><rect width="216" height="62" fill="white"></rect><path d="M66.4218 5.89968C64.0632 5.36473 60.2213 5 55.8445 5C51.4677 5 47.6258 5.36473 45.2672 5.89968C40.5986 6.89662 36.9026 10.5926 35.93 15.2855C35.395 17.6442 35.0303 21.5104 35.0303 25.8872C35.0303 30.264 35.395 34.1302 35.93 36.4888C36.9026 41.1818 40.5986 44.8777 45.2672 45.8747C47.6258 46.4096 51.4677 46.7744 55.8445 46.7744C60.2213 46.7744 64.0632 46.4096 66.4218 45.8747C71.0905 44.8777 74.7864 41.1818 75.7591 36.4888C76.294 34.1302 76.6587 30.264 76.6587 25.8872C76.6587 21.5104 76.294 17.6442 75.7591 15.2855C74.7864 10.5683 71.0905 6.87231 66.4218 5.89968Z" fill="#8B8B8B"></path><path d="M101.509 18.9087H105.497V36.3188H101.509V33.255C100.269 35.4191 98.1295 36.6592 95.3575 36.6592C90.7375 36.6592 87.0415 32.5985 87.0415 27.5894C87.0415 22.5804 90.7375 18.5683 95.3575 18.5683C98.1295 18.5683 100.269 19.8084 101.509 21.9725V18.9087ZM161.058 18.9087H165.046V36.3188H161.058V33.255C159.818 35.4191 157.679 36.6592 154.907 36.6592C150.287 36.6592 146.591 32.5985 146.591 27.5894C146.591 22.5804 150.287 18.5683 154.907 18.5683C157.679 18.5683 159.818 19.8084 161.058 21.9725V18.9087ZM96.3058 32.8659C99.3209 32.8659 101.607 30.5803 101.607 27.5651C101.607 24.5743 99.3452 22.3129 96.3058 22.3129C93.3636 22.3129 91.005 24.6715 91.005 27.5651C91.0293 30.5316 93.3636 32.8659 96.3058 32.8659ZM155.66 32.8659C158.676 32.8659 160.961 30.5803 160.961 27.5651C160.961 24.5743 158.7 22.3129 155.66 22.3129C152.718 22.3129 150.36 24.6715 150.36 27.5651C150.36 30.5316 152.694 32.8659 155.66 32.8659ZM111.454 10.2037C112.84 10.2037 114.008 11.3709 114.008 12.7325C114.008 14.1672 112.84 15.2857 111.454 15.2857C110.068 15.2857 108.926 14.1428 108.926 12.7325C108.926 11.3952 110.068 10.2037 111.454 10.2037ZM109.485 18.8601H113.424V36.2701H109.485V18.8601ZM125.825 18.5197C126.579 18.5197 127.308 18.6413 127.843 18.8358C128.159 18.9574 128.427 19.0789 128.646 19.2005L127.041 22.5561C126.53 22.4102 125.995 22.3372 125.436 22.3372C123.515 22.3372 121.4 23.9421 121.4 27.0059V36.2944H117.46V18.8844H121.375V21.3889C122.153 19.6868 124.123 18.5197 125.825 18.5197ZM145.618 31.8447C144.305 34.7139 141.241 36.6106 137.618 36.6106C132.463 36.6106 128.524 32.7444 128.524 27.5894C128.524 22.4345 132.439 18.5197 137.57 18.5197C140.949 18.5197 143.794 20.1975 145.059 22.7506L141.728 24.6472C141.022 23.2612 139.466 22.3372 137.57 22.3372C134.579 22.3372 132.415 24.6229 132.415 27.5894C132.415 30.5316 134.627 32.8173 137.594 32.8173C139.612 32.8173 141.29 31.869 142.068 30.2642L145.618 31.8447ZM172.973 10.2037V36.2458H169.034V10.2037H172.973ZM180.924 10.2037V36.2458H176.985V10.2037H180.924Z" fill="#8B8B8B"></path><path d="M60.8536 37.0235C60.4645 36.0752 59.6135 35.3701 58.5922 35.1512C57.9843 35.0053 56.9874 34.9081 55.8445 34.9081C54.7017 34.9081 53.7047 35.0053 53.0968 35.1512C52.0756 35.3701 51.2488 36.0752 50.8598 36.9992C50.7139 37.3153 50.3978 37.5098 50.0331 37.4855C49.9358 37.4855 49.8629 37.4612 49.8142 37.4612C48.1851 37.291 46.8963 37.0722 46.1426 36.8047C45.6319 36.6102 45.2915 36.1238 45.2915 35.5646C45.2915 35.5403 45.2915 35.5403 45.2915 35.516C45.2915 35.4916 45.2915 35.4673 45.2915 35.443C45.2915 35.443 45.2915 35.443 45.2915 35.4187C45.2915 35.3944 45.2915 35.3944 45.2915 35.3701C45.4131 33.668 46.4587 29.6802 47.9905 25.1332C49.7413 19.9296 51.5893 15.723 52.416 14.8962C52.5376 14.7503 52.7078 14.6531 52.878 14.5558C52.9509 14.5072 53.0239 14.4829 53.1212 14.4586C53.6561 14.264 54.6774 14.1425 55.8202 14.1425C56.963 14.1425 57.9843 14.264 58.5192 14.4586C58.6165 14.4829 58.7138 14.5315 58.7624 14.5558C58.9326 14.6531 59.0785 14.7503 59.2244 14.8962C60.0511 15.723 61.8991 19.9296 63.6499 25.1332C65.1817 29.6802 66.2273 33.668 66.3489 35.3701C66.3489 35.3944 66.3489 35.3944 66.3489 35.4187C66.3489 35.4187 66.3489 35.4187 66.3489 35.443C66.3489 35.4673 66.3489 35.4916 66.3489 35.516C66.3489 35.5403 66.3489 35.5403 66.3489 35.5646C66.3489 36.1238 65.9842 36.6102 65.4978 36.8047C64.7441 37.0722 63.4796 37.291 61.8505 37.4612C61.7775 37.4612 61.7046 37.4855 61.583 37.4855C61.2912 37.5342 60.9751 37.3396 60.8536 37.0235Z" fill="white"></path></svg>