<svg xmlns="http://www.w3.org/2000/svg" width="216" height="62" viewBox="0 0 216 62" fill="none"><rect width="216" height="62" fill="white"></rect><path fill-rule="evenodd" clip-rule="evenodd" d="M137.084 49.4103C128.768 55.6667 116.673 59.0001 106.241 59.0001C91.6258 59.0001 78.5226 53.5129 68.544 44.3846C67.788 43.6667 68.4432 42.6923 69.4007 43.2564C80.1353 49.6154 93.3897 53.4103 107.098 53.4103C116.32 53.4103 126.501 51.4616 135.874 47.4103C137.285 46.8462 138.445 48.3847 137.084 49.4103Z" fill="#8B8B8B"></path><path fill-rule="evenodd" clip-rule="evenodd" d="M140.561 45.359C139.503 43.9744 133.506 44.6923 130.835 45.0513C130.028 45.1539 129.877 44.4359 130.633 43.9231C135.421 40.4872 143.232 41.5128 144.14 42.641C145.047 43.7692 143.888 51.7692 139.402 55.5641C138.697 56.1282 138.041 55.8205 138.344 55.0513C139.352 52.4872 141.62 46.7949 140.561 45.359Z" fill="#8B8B8B"></path><path fill-rule="evenodd" clip-rule="evenodd" d="M130.986 19.8205V16.4872C130.986 15.9744 131.339 15.6667 131.792 15.6667H146.407C146.861 15.6667 147.264 16.0256 147.264 16.4872V19.3077C147.264 19.7692 146.861 20.3846 146.155 21.4103L138.596 32.3846C141.418 32.3333 144.391 32.7436 146.911 34.1795C147.466 34.4872 147.617 35 147.667 35.4615V39C147.667 39.5128 147.163 40.0769 146.609 39.7692C142.124 37.359 136.126 37.1026 131.187 39.8205C130.683 40.0769 130.129 39.5641 130.129 39.0513V35.6667C130.129 35.1538 130.129 34.2308 130.683 33.4103L139.453 20.641H131.843C131.389 20.641 130.986 20.282 130.986 19.8205ZM77.7162 40.4872H73.2812C72.8781 40.4359 72.5253 40.1282 72.4749 39.7179V16.5385C72.4749 16.0769 72.8781 15.7179 73.3316 15.7179H77.4642C77.9178 15.7179 78.2201 16.0769 78.2705 16.4872V19.5128H78.3713C79.4297 16.5897 81.4959 15.2051 84.2174 15.2051C86.9892 15.2051 88.7531 16.5897 89.9627 19.5128C91.021 16.5897 93.4904 15.2051 96.1111 15.2051C97.9758 15.2051 99.9917 15.9744 101.252 17.7692C102.663 19.7179 102.36 22.5385 102.36 25.0513V39.7179C102.36 40.1795 101.957 40.5385 101.504 40.5385H97.119C96.6655 40.4872 96.3127 40.1282 96.3127 39.7179V27.4102C96.3127 26.4359 96.4135 23.9743 96.2119 23.0513C95.8591 21.5128 94.9016 21.0513 93.5912 21.0513C92.5329 21.0513 91.3738 21.7692 90.9202 22.9487C90.4666 24.1282 90.517 26.0769 90.517 27.4102V39.7179C90.517 40.1795 90.1138 40.5385 89.6603 40.5385H85.2253C84.7718 40.4872 84.419 40.1282 84.419 39.7179V27.4102C84.419 24.8461 84.8222 21 81.6975 21C78.5225 21 78.6233 24.6923 78.6233 27.4102V39.7179C78.5729 40.1282 78.2201 40.4872 77.7162 40.4872ZM159.863 15.2051C166.465 15.2051 170.044 20.9487 170.044 28.282C170.044 35.359 166.113 41 159.863 41C153.412 41 149.885 35.2564 149.885 28.0769C149.834 20.8462 153.412 15.2051 159.863 15.2051ZM159.863 19.9743C156.588 19.9743 156.386 24.5385 156.386 27.359C156.386 30.1795 156.336 36.2308 159.813 36.2308C163.24 36.2308 163.442 31.359 163.442 28.3846C163.442 26.4359 163.341 24.0769 162.786 22.2308C162.282 20.5897 161.274 19.9743 159.863 19.9743ZM178.561 40.4872H174.126C173.672 40.4359 173.319 40.0769 173.319 39.6667V16.4359C173.37 16.0256 173.722 15.6667 174.176 15.6667H178.309C178.712 15.6667 179.014 15.9744 179.115 16.3333V19.8718H179.216C180.476 16.6923 182.189 15.2051 185.263 15.2051C187.229 15.2051 189.194 15.9231 190.454 17.9231C191.613 19.7692 191.613 22.8974 191.613 25.1538V39.7692C191.563 40.1795 191.21 40.4872 190.757 40.4872H186.322C185.919 40.4359 185.566 40.1282 185.515 39.7692V27.1538C185.515 24.5897 185.818 20.8974 182.744 20.8974C181.685 20.8974 180.677 21.6154 180.173 22.7436C179.569 24.1795 179.468 25.5641 179.468 27.1538V39.6667C179.417 40.1282 179.014 40.4872 178.561 40.4872ZM119.344 29.4103C119.344 31.1538 119.395 32.641 118.538 34.2308C117.832 35.5128 116.723 36.282 115.464 36.282C113.75 36.282 112.742 34.9487 112.742 33C112.742 29.1538 116.119 28.4359 119.344 28.4359V29.4103ZM123.829 40.4359C123.527 40.6923 123.124 40.7436 122.771 40.5385C121.31 39.3077 121.007 38.6923 120.201 37.5128C117.782 40.0256 116.018 40.7949 112.893 40.7949C109.164 40.7949 106.241 38.4359 106.241 33.7692C106.241 30.0769 108.206 27.6154 110.978 26.3846C113.397 25.3077 116.774 25.1026 119.344 24.7949V24.2308C119.344 23.1538 119.445 21.8718 118.79 20.9487C118.235 20.1282 117.227 19.7692 116.32 19.7692C114.607 19.7692 113.095 20.641 112.742 22.4872C112.641 22.8974 112.389 23.3077 111.986 23.3077L107.702 22.8461C107.35 22.7436 106.946 22.4872 107.047 21.9231C108.055 16.5897 112.742 15 116.975 15C119.143 15 121.965 15.5641 123.678 17.2564C125.845 19.3077 125.644 22.0769 125.644 25.0513V32.0769C125.644 34.1795 126.5 35.1026 127.307 36.282C127.609 36.6923 127.66 37.2051 127.307 37.4615C126.349 38.2308 124.737 39.6667 123.829 40.4359ZM61.1356 29.4103C61.1356 31.1538 61.186 32.641 60.3292 34.2308C59.6236 35.5128 58.5149 36.282 57.255 36.282C55.5415 36.282 54.5335 34.9487 54.5335 33C54.5335 29.1538 57.9101 28.4359 61.1356 28.4359V29.4103ZM65.5705 40.4359C65.2681 40.6923 64.8649 40.7436 64.5122 40.5385C63.0506 39.3077 62.7483 38.6923 61.9419 37.5128C59.5229 40.0256 57.759 40.7949 54.6343 40.7949C50.905 40.7949 47.9819 38.4359 47.9819 33.7692C47.9819 30.0769 49.9474 27.6154 52.7193 26.3846C55.1383 25.3077 58.5149 25.1026 61.0852 24.7949V24.2308C61.0852 23.1538 61.186 21.8718 60.5308 20.9487C59.9764 20.1282 58.9685 19.7692 58.0613 19.7692C56.3478 19.7692 54.8359 20.641 54.4831 22.4872C54.3824 22.8974 54.1304 23.3077 53.7272 23.3077L49.4434 22.8461C49.0907 22.7436 48.6875 22.4872 48.7883 21.9231C49.7962 16.5897 54.4832 15 58.7165 15C60.8836 15 63.7058 15.5641 65.4193 17.2564C67.5864 19.3077 67.3848 22.0769 67.3848 25.0513V32.0769C67.3848 34.1795 68.2415 35.1026 69.0479 36.282C69.3503 36.6923 69.4007 37.2051 69.0479 37.4615C68.0903 38.2308 66.4776 39.6667 65.5705 40.4359Z" fill="#8B8B8B"></path></svg>