<svg xmlns="http://www.w3.org/2000/svg" width="216" height="62" viewBox="0 0 216 62" fill="none"><rect width="216" height="62" fill="white"></rect><g clip-path="url(#clip0)"><path d="M40.5407 15.5831L30.2704 22.1661L40.5407 28.7492L30.2704 35.3323L20 28.6944L30.2704 22.1113L20 15.5831L30.2704 9L40.5407 15.5831ZM30.2157 37.4169L40.4861 30.8339L50.7565 37.4169L40.4861 44L30.2157 37.4169ZM40.5407 28.6944L50.8111 22.1113L40.5407 15.5831L50.7565 9L61.0269 15.5831L50.7565 22.1661L61.0269 28.7492L50.7565 35.3323L40.5407 28.6944Z" fill="#8B8B8B"></path><path d="M69.0576 15.5831H77.3613C82.6604 15.5831 87.0308 18.6552 87.0308 25.6771V27.1583C87.0308 34.2351 82.9335 37.4169 77.5252 37.4169H69.0576V15.5831ZM73.7011 19.5329V33.4122H77.2521C80.2567 33.4122 82.278 31.4373 82.278 27.0486V25.8965C82.278 21.5078 80.1474 19.5329 77.0882 19.5329H73.7011ZM89.4891 19.7523H93.2039L93.8048 23.8668C94.515 21.069 96.3178 19.5878 99.5956 19.5878H100.743V24.3056H98.8308C95.0613 24.3056 94.1326 25.6222 94.1326 29.3527V37.4718H89.5437V19.7523H89.4891ZM101.672 28.9686V28.4749C101.672 22.5501 105.441 19.3135 110.576 19.3135C115.821 19.3135 119.481 22.5501 119.481 28.4749V28.9686C119.481 34.7837 115.93 37.9106 110.576 37.9106C104.895 37.8558 101.672 34.7837 101.672 28.9686ZM114.783 28.9138V28.4749C114.783 25.1834 113.144 23.2085 110.522 23.2085C107.954 23.2085 106.26 25.0188 106.26 28.4749V28.9138C106.26 32.0956 107.899 33.9059 110.522 33.9059C113.144 33.8511 114.783 32.0956 114.783 28.9138ZM121.884 19.7523H125.709L126.146 23.0987C127.074 20.8495 129.041 19.3135 131.936 19.3135C136.416 19.3135 139.366 22.5501 139.366 28.5298V29.0235C139.366 34.8385 136.088 37.9106 131.936 37.9106C129.15 37.9106 127.238 36.6489 126.309 34.6191V43.5611H121.83L121.884 19.7523ZM134.722 28.9138V28.5298C134.722 25.0188 132.92 23.2633 130.516 23.2633C127.948 23.2633 126.255 25.2382 126.255 28.5298V28.8589C126.255 31.9859 127.894 33.9608 130.461 33.9608C133.084 33.9059 134.722 32.2053 134.722 28.9138ZM146.14 34.1802L145.758 37.4169H141.824V13.8276H146.304V22.8793C147.287 20.5752 149.254 19.3135 152.04 19.3135C156.247 19.3683 159.36 22.2759 159.36 28.1458V28.6943C159.36 34.5643 156.41 37.9106 151.931 37.9106C148.981 37.8558 147.069 36.4843 146.14 34.1802ZM154.662 28.6943V28.2555C154.662 25.0188 152.914 23.2085 150.456 23.2085C147.943 23.2085 146.195 25.2382 146.195 28.3103V28.6943C146.195 31.9859 147.888 33.9059 150.401 33.9059C153.078 33.9059 154.662 32.2053 154.662 28.6943ZM161.327 28.9686V28.4749C161.327 22.5501 165.097 19.3135 170.232 19.3135C175.476 19.3135 179.136 22.5501 179.136 28.4749V28.9686C179.136 34.7837 175.531 37.9106 170.232 37.9106C164.55 37.8558 161.327 34.7837 161.327 28.9686ZM174.493 28.9138V28.4749C174.493 25.1834 172.854 23.2085 170.232 23.2085C167.664 23.2085 165.971 25.0188 165.971 28.4749V28.9138C165.971 32.0956 167.609 33.9059 170.232 33.9059C172.854 33.8511 174.493 32.0956 174.493 28.9138ZM185.146 28.2555L178.972 19.7523H184.272L187.822 25.0737L191.428 19.7523H196.672L190.39 28.2006L197 37.4169H191.81L187.768 31.547L183.834 37.4169H178.426L185.146 28.2555Z" fill="#8B8B8B"></path></g><defs><clipPath id="clip0"><rect width="177" height="35" fill="white" transform="translate(20 9)"></rect></clipPath></defs></svg>