<svg xmlns="http://www.w3.org/2000/svg" width="216" height="62" viewBox="0 0 216 62" fill="none"><rect width="216" height="62" fill="white"></rect><g clip-path="url(#clip0)"><path d="M57.5024 6.005H58.694C62.8309 6.09753 66.9004 7.80931 69.8232 10.8396C68.744 11.9731 67.6423 13.0603 66.5856 14.1938C64.9443 12.6671 62.9658 11.4873 60.8074 11.0709C57.6148 10.377 54.1748 11.0016 51.4993 12.8753C48.5765 14.8415 46.598 18.1725 46.1708 21.7349C45.6987 25.251 46.6654 28.9521 48.8913 31.6817C51.0272 34.3419 54.2873 36.0074 57.6597 36.1231C60.8074 36.3081 64.0899 35.3134 66.3832 33.0465C68.1819 31.4504 69.0138 29.0215 69.2836 26.662C65.5514 26.662 61.8191 26.6852 58.0869 26.662V21.8968H73.8027C74.6121 27.009 73.443 32.7689 69.6658 36.4238C67.1477 39.0146 63.6628 40.5413 60.1104 40.842C56.6705 41.189 53.1181 40.5182 50.0604 38.8064C46.3957 36.7939 43.4728 33.3935 42.0339 29.3916C40.6849 25.7136 40.6624 21.5498 41.9215 17.8487C43.0681 14.4714 45.2715 11.4873 48.1044 9.40543C50.8248 7.34667 54.1299 6.21319 57.5024 6.005Z" fill="#8B8B8B"></path><path d="M147.66 7.20691H152.472V40.2396C150.875 40.2396 149.256 40.2628 147.66 40.2165C147.683 29.2287 147.66 18.2178 147.66 7.20691Z" fill="#8B8B8B"></path><path d="M84.5052 18.6573C87.4729 18.079 90.6881 18.7267 93.1387 20.5541C95.3646 22.1734 96.9159 24.7179 97.3881 27.4938C97.9951 30.7091 97.2307 34.2252 95.2072 36.7697C93.0263 39.615 89.4515 41.1417 85.9666 40.9104C82.7739 40.7253 79.6713 39.083 77.7827 36.3996C75.6468 33.4387 75.1296 29.3675 76.2988 25.8976C77.4679 22.1734 80.7729 19.3281 84.5052 18.6573ZM85.1797 23.0524C83.9656 23.3762 82.8414 24.0933 82.032 25.1112C79.8511 27.7945 79.986 32.1665 82.3917 34.6647C83.7632 36.0989 85.8317 36.7697 87.7427 36.3765C89.5189 36.0526 91.0703 34.8266 91.9246 33.2074C93.4085 30.4547 92.9813 26.661 90.7105 24.5097C89.2491 23.1218 87.1132 22.5435 85.1797 23.0524Z" fill="#8B8B8B"></path><path d="M108.337 18.6573C111.732 17.9864 115.442 18.958 117.983 21.41C122.12 25.2268 122.569 32.3747 119.039 36.7698C116.904 39.5456 113.441 41.0723 110.024 40.9104C106.764 40.8179 103.549 39.1524 101.615 36.3996C99.4341 33.3693 98.9619 29.2055 100.199 25.6663C101.435 22.0577 104.673 19.305 108.337 18.6573ZM109.012 23.0524C107.798 23.3762 106.674 24.0933 105.864 25.088C103.706 27.7251 103.796 32.0277 106.112 34.5491C107.483 36.0527 109.619 36.7929 111.597 36.3765C113.351 36.0295 114.925 34.8267 115.779 33.2074C117.241 30.4315 116.814 26.6379 114.52 24.4866C113.059 23.0987 110.923 22.5435 109.012 23.0524Z" fill="#8B8B8B"></path><path d="M128.55 19.999C131.135 18.3335 134.575 17.8708 137.363 19.305C138.24 19.6983 138.959 20.3691 139.656 21.0399C139.679 20.4154 139.656 19.7677 139.679 19.12C141.185 19.1431 142.692 19.12 144.22 19.1431V39.5456C144.198 42.6222 143.433 45.8838 141.275 48.1277C138.914 50.6028 135.295 51.3662 132.034 50.8573C128.55 50.3252 125.514 47.7113 124.165 44.4034C125.514 43.7326 126.931 43.2005 128.325 42.576C129.112 44.4728 130.708 46.092 132.709 46.4621C134.71 46.8323 137.026 46.3234 138.33 44.6116C139.724 42.8535 139.724 40.4478 139.656 38.2965C138.622 39.3375 137.43 40.2627 135.992 40.6097C132.866 41.5119 129.426 40.4015 127.021 38.2271C124.593 36.0527 123.154 32.6985 123.289 29.3675C123.356 25.597 125.424 21.9652 128.55 19.999ZM133.204 22.9599C131.832 23.1912 130.551 23.9777 129.674 25.0649C127.56 27.6557 127.56 31.7964 129.696 34.3409C130.91 35.8445 132.866 36.6773 134.755 36.4691C136.531 36.284 138.172 35.1274 139.049 33.5313C140.533 30.8248 140.286 27.1468 138.285 24.7873C137.048 23.33 135.07 22.6129 133.204 22.9599Z" fill="#8B8B8B"></path><path d="M158.25 21.1787C160.948 18.5879 165.108 17.7089 168.57 19.0737C171.853 20.346 173.944 23.5613 175 26.8692C170.121 28.9511 165.265 31.0099 160.386 33.0918C161.061 34.4103 162.095 35.6132 163.489 36.099C165.445 36.8161 167.783 36.5616 169.424 35.2199C170.076 34.711 170.594 34.0402 171.088 33.3925C172.325 34.2484 173.561 35.0811 174.798 35.937C173.044 38.6435 170.099 40.5403 166.929 40.8411C163.421 41.2806 159.689 39.8926 157.418 37.0705C153.686 32.6291 154.046 25.1806 158.25 21.1787ZM160.656 25.4582C159.892 26.5916 159.577 27.9796 159.599 29.3444C162.859 27.9564 166.119 26.5685 169.379 25.1574C168.84 23.862 167.536 23.0755 166.209 22.8674C164.073 22.4741 161.848 23.6539 160.656 25.4582Z" fill="#8B8B8B"></path></g><defs><clipPath id="clip0"><rect width="134" height="45" fill="white" transform="translate(41 6)"></rect></clipPath></defs></svg>