<svg xmlns="http://www.w3.org/2000/svg" width="52" height="50" viewBox="0 0 52 50" fill="none"><path d="M6.35344 41.3826H13.5522V24.5028L3.26819 17.0562V38.4043C3.26876 40.049 4.65003 41.3826 6.35344 41.3826Z" fill="#4285F4"></path><path d="M38.2332 41.3826H45.4325C47.1364 41.3826 48.5177 40.0489 48.5177 38.4037V17.0555L38.2332 24.5027V41.3826Z" fill="#34A853"></path><path d="M38.2332 11.5961V24.5027L48.5171 17.0561V13.0855C48.5171 10.6183 46.4452 8.6178 43.8893 8.6178C42.8879 8.6178 41.9141 8.93159 41.113 9.51168L38.2332 11.5961Z" fill="#FBBC04"></path><path d="M13.5527 24.5027V11.5961L25.8926 20.5316L38.2325 11.5956V24.5027L25.8926 33.4382L13.5527 24.5027Z" fill="#EA4335"></path><path d="M3.27209 13.0851V17.0556L13.5561 24.5028V11.5962L10.6762 9.51124C8.6318 8.03065 5.73137 8.43063 4.1979 10.4046C3.59653 11.178 3.27209 12.1188 3.27209 13.0851Z" fill="#C5221F"></path></svg>