<svg xmlns="http://www.w3.org/2000/svg" width="52" height="50" viewBox="0 0 52 50" fill="none"><g clip-path="url(#clip0_2042_57391)"><path d="M0 2C0 0.895432 0.895431 0 2 0H49.7857C50.8903 0 51.7857 0.89543 51.7857 2V48C51.7857 49.1046 50.8903 50 49.7857 50H2C0.895428 50 0 49.1046 0 48V2Z" fill="#4990E2"></path><path d="M0.0404402 45.5634C0.102138 45.8124 0.163836 46.0624 0.226545 46.3114C0.768677 48.4667 2.65906 49.9003 5.00661 49.9091C7.73143 49.9198 10.4562 49.912 13.1801 49.912C24.3312 49.912 35.4813 49.913 46.6324 49.911C49.074 49.911 50.9765 48.5263 51.5217 46.3319C51.6299 45.8954 51.6785 45.4345 51.6785 44.9843C51.6866 31.6689 51.6856 18.3525 51.6846 5.0371C51.6846 2.40625 50.13 0.614257 47.4588 0.152344C47.3627 0.135742 47.2737 0.0830077 47.1816 0.046875C48.7291 0.046875 50.2776 0.046875 51.8251 0.046875C51.8251 16.7138 51.8251 33.3798 51.8251 50.0468C34.5629 50.0468 17.3017 50.0468 0.0394287 50.0468C0.0404402 48.5526 0.0404402 47.0585 0.0404402 45.5634Z" fill="white"></path><path d="M4.58241 0.046875C4.29213 0.116211 4.00185 0.183594 3.71258 0.255859C1.80298 0.728516 0.449672 2.18555 0.163435 4.06836C0.144217 4.19336 0.0825195 4.31152 0.0400391 4.43359C0.0400391 2.97168 0.0400391 1.50977 0.0400391 0.0478516C1.55416 0.046875 3.06829 0.046875 4.58241 0.046875Z" fill="white"></path><path d="M6.59055 24.9963C6.50357 19.8683 10.3582 14.4103 16.8162 13.4064C20.8235 12.7833 24.3808 13.8576 27.3139 16.6115C29.5573 18.7169 31.7461 20.8781 33.9581 23.0148C35.1475 24.1642 35.5147 25.5529 35.0525 27.0832C34.5973 28.589 33.5009 29.5451 31.9018 29.8468C30.5455 30.1027 29.2761 29.8244 28.2647 28.8634C26.2499 26.9494 24.2604 25.0109 22.2628 23.0802C21.5508 22.3918 20.8225 22.1964 20.0821 22.5089C18.9817 22.9728 18.6065 24.3644 19.452 25.1925C21.9068 27.5988 24.2725 30.1154 26.9266 32.3019C32.5198 36.9113 41.3365 33.7609 42.6919 26.7843C43.6922 21.6388 40.2108 16.6837 34.8724 15.7042C33.4595 15.4455 32.0323 15.4855 30.6274 15.8449C30.4019 15.9025 30.1692 15.9562 29.9376 15.965C29.3844 15.9845 28.8979 15.6222 28.7805 15.1359C28.642 14.5617 28.8857 14.0177 29.4279 13.8009C29.7657 13.6662 30.1288 13.5802 30.4889 13.507C37.3586 12.1232 43.7579 16.423 44.9919 22.7238C46.2107 28.9474 42.439 34.8029 36.1408 36.3566C31.7653 37.4357 27.8409 36.424 24.5648 33.3928C22.2942 31.2922 20.1044 29.1086 17.8833 26.9572C16.71 25.8205 16.353 24.4396 16.8091 22.9279C17.2633 21.425 18.3516 20.463 19.9537 20.1574C21.3758 19.8859 22.6573 20.2287 23.7041 21.2355C25.7068 23.1613 27.7003 25.0959 29.703 27.0216C30.6203 27.9045 31.9797 27.8009 32.5967 26.8146C32.979 26.2043 32.9558 25.3263 32.4308 24.8185C29.9761 22.4347 27.6356 19.9171 24.9947 17.7404C19.3468 13.0851 10.5706 16.1466 9.19602 23.1935C8.05208 29.0597 12.3821 33.6955 17.3634 34.343C18.746 34.5226 20.1074 34.4543 21.4567 34.1125C22.2426 33.9142 22.8879 34.2199 23.0659 34.8674C23.2469 35.5246 22.8484 36.1183 22.0878 36.3273C15.2879 38.1945 8.13199 33.9357 6.86971 27.257C6.72912 26.5119 6.68158 25.7502 6.59055 24.9963Z" fill="white"></path></g><defs><clipPath id="clip0_2042_57391"><path d="M0 2C0 0.895432 0.895431 0 2 0H49.7857C50.8903 0 51.7857 0.89543 51.7857 2V48C51.7857 49.1046 50.8903 50 49.7857 50H2C0.895428 50 0 49.1046 0 48V2Z" fill="white"></path></clipPath></defs></svg>