<svg xmlns="http://www.w3.org/2000/svg" width="52" height="50" viewBox="0 0 52 50" fill="none"><path d="M0 2C0 0.895432 0.895431 0 2 0H49.7857C50.8903 0 51.7857 0.89543 51.7857 2V48C51.7857 49.1046 50.8903 50 49.7857 50H2C0.895428 50 0 49.1046 0 48V2Z" fill="#26292C"></path><rect x="9.70984" y="6.25" width="35.6027" height="37.5" fill="white"></rect><path fill-rule="evenodd" clip-rule="evenodd" d="M10.3166 3.12488H41.469C45.3792 3.12488 48.5491 6.18543 48.5491 9.96082V40.0389C48.5491 43.8143 45.3792 46.8749 41.469 46.8749H10.3166C6.40643 46.8749 3.23657 43.8143 3.23657 40.0389V9.96082C3.23657 6.18543 6.40643 3.12488 10.3166 3.12488ZM22.9158 12.8698C23.8794 11.8885 25.8942 10.4166 29.369 10.4166C35.3257 10.4166 39.3554 14.8052 39.3263 21.32C39.3263 27.753 35.0921 32.2233 29.0478 32.2233C26.1571 32.2233 24.3174 31.0787 23.3538 30.2608V39.5831H17.1635V16.3862C17.1635 16.0591 17.0467 15.95 16.6963 15.95H14.5647V10.88H19.7915C22.1859 10.88 22.7991 11.9976 22.9158 12.8698ZM23.2663 21.429C23.2663 24.2094 24.7846 27.1806 28.1134 27.1806C30.5662 27.1806 33.0774 25.4088 33.1066 21.3745C33.1066 17.8581 31.121 15.5139 28.201 15.5139C25.8066 15.5139 23.2663 17.0677 23.2663 21.429Z" fill="#26292C"></path></svg>