<svg xmlns="http://www.w3.org/2000/svg" width="52" height="50" viewBox="0 0 52 50" fill="none"><g clip-path="url(#clip0_2042_57382)"><path d="M46.2959 3.12488H18.4477C17.8445 3.12488 17.2661 3.356 16.8396 3.76741C16.4131 4.17882 16.1735 4.73681 16.1735 5.31863V7.81238L31.8696 12.4999L48.5701 7.81238V5.31863C48.5701 4.73681 48.3305 4.17882 47.904 3.76741C47.4775 3.356 46.899 3.12488 46.2959 3.12488Z" fill="#0364B8"></path><path d="M51.2435 27.1952C51.4808 26.4758 51.6701 25.7426 51.8104 24.9999C51.8102 24.8174 51.7603 24.6382 51.6656 24.4803C51.5709 24.3223 51.4349 24.1911 51.271 24.0999L51.25 24.0874L51.2435 24.0843L33.6877 14.4374C33.612 14.39 33.5336 14.3467 33.4529 14.3077C33.1171 14.1469 32.7473 14.0632 32.3724 14.0632C31.9976 14.0632 31.6278 14.1469 31.292 14.3077C31.2113 14.3461 31.1329 14.3889 31.0571 14.4358L13.5014 24.0858L13.4949 24.0889L13.4755 24.0999C13.3114 24.1909 13.175 24.322 13.08 24.48C12.985 24.638 12.9348 24.8173 12.9344 24.9999C13.0748 25.7425 13.2641 26.4758 13.5014 27.1952L32.1165 40.328L51.2435 27.1952Z" fill="#0A2767"></path><path d="M38.8507 7.8125H27.5118L24.2382 12.5L27.5118 17.1875L38.8507 26.5625H48.5697V17.1875L38.8507 7.8125Z" fill="#28A8EA"></path><path d="M16.1735 7.8125H27.5123V17.1875H16.1735V7.8125Z" fill="#0078D4"></path><path d="M38.8516 7.8125H48.5706V17.1875H38.8516V7.8125Z" fill="#50D9FF"></path><path d="M38.8511 26.5625L27.5123 17.1875H16.1735V26.5625L27.5123 35.9375L45.0583 38.7L38.8511 26.5625Z" fill="#0364B8"></path><path d="M27.5125 17.1875H38.8513V26.5625H27.5125V17.1875Z" fill="#0078D4"></path><path d="M16.1735 26.5623H27.5123V35.9373H16.1735V26.5623Z" fill="#064A8C"></path><path d="M38.8516 26.5623H48.5706V35.9373H38.8516V26.5623Z" fill="#0078D4"></path><path opacity="0.5" d="M32.6796 39.4031L13.5769 25.9656L14.3787 24.6062C14.3787 24.6062 31.7838 34.1687 32.0495 34.3124C32.1582 34.3544 32.2746 34.3744 32.3916 34.3712C32.5087 34.3679 32.6238 34.3416 32.7298 34.2937L50.4394 24.5593L51.2428 25.9171L32.6796 39.4031Z" fill="#0A2767"></path><path d="M51.2704 25.9016L51.2477 25.9141L51.2428 25.9172L33.6871 35.5641C33.3384 35.7809 32.9379 35.9079 32.5239 35.9328C32.1098 35.9577 31.696 35.8797 31.3221 35.7062L37.4354 43.6141L50.8055 46.4219V46.4281C51.1165 46.2111 51.3697 45.926 51.5443 45.5963C51.7189 45.2665 51.8099 44.9015 51.8098 44.5312V25C51.8098 25.1827 51.76 25.3622 51.6653 25.5205C51.5707 25.6788 51.4344 25.8102 51.2704 25.9016Z" fill="#1490DF"></path><path opacity="0.05" d="M51.8098 44.5312V43.3781L35.639 34.4906L33.6871 35.564C33.3384 35.7809 32.9379 35.9079 32.5239 35.9327C32.1098 35.9576 31.696 35.8796 31.3221 35.7062L37.4354 43.614L50.8055 46.4218V46.4281C51.1165 46.2111 51.3697 45.926 51.5443 45.5962C51.7189 45.2665 51.8099 44.9015 51.8098 44.5312Z" fill="black"></path><path opacity="0.1" d="M51.7287 45.1296L34.003 35.3905L33.6871 35.5624C33.3386 35.7795 32.9381 35.9067 32.5241 35.9319C32.11 35.9571 31.6962 35.8793 31.3221 35.7061L37.4354 43.6139L50.8054 46.4218V46.428C51.2588 46.1112 51.5849 45.6531 51.7287 45.1311V45.1296Z" fill="black"></path><path d="M13.5014 25.9219V25.9062H13.4852L13.4366 25.875C13.2818 25.7833 13.1542 25.6546 13.0662 25.5013C12.9782 25.3479 12.9328 25.1752 12.9345 25V44.5312C12.9341 44.8391 12.9966 45.144 13.1186 45.4286C13.2405 45.7131 13.4195 45.9717 13.6452 46.1894C13.8709 46.4071 14.1389 46.5797 14.4339 46.6974C14.7289 46.815 15.045 46.8753 15.3642 46.8749H49.3808C49.5832 46.873 49.7845 46.8468 49.9801 46.7968C50.0816 46.7798 50.1799 46.7482 50.2717 46.7031C50.3061 46.6998 50.3394 46.6891 50.3689 46.6718C50.5015 46.6195 50.6267 46.5513 50.7415 46.4687C50.7739 46.4531 50.7901 46.4531 50.8063 46.4218L13.5014 25.9219Z" fill="#28A8EA"></path><path opacity="0.1" d="M29.1328 38.5422V13.0203C29.1311 12.4684 28.903 11.9396 28.4985 11.5494C28.0939 11.1591 27.5457 10.9391 26.9735 10.9375H16.2227V22.5875L13.5014 24.0844L13.4933 24.0875L13.4739 24.0984C13.3098 24.1898 13.1736 24.3212 13.0789 24.4795C12.9842 24.6377 12.9344 24.8173 12.9344 25V25.0078V25V40.625H26.9735C27.5457 40.6234 28.0939 40.4034 28.4985 40.0131C28.903 39.6229 29.1311 39.0941 29.1328 38.5422Z" fill="black"></path><path opacity="0.2" d="M27.5129 40.1046V14.5827C27.5112 14.0308 27.2832 13.502 26.8786 13.1117C26.4741 12.7215 25.9258 12.5015 25.3537 12.4999H16.2227V22.5874L13.5014 24.0843L13.4933 24.0874L13.4739 24.0983C13.3098 24.1897 13.1736 24.3211 13.0789 24.4794C12.9842 24.6376 12.9344 24.8172 12.9344 24.9999V25.0077V24.9999V42.1874H25.3537C25.9258 42.1857 26.4741 41.9658 26.8786 41.5755C27.2832 41.1853 27.5112 40.6565 27.5129 40.1046Z" fill="black"></path><path opacity="0.2" d="M27.5129 36.9796V14.5827C27.5112 14.0308 27.2832 13.502 26.8786 13.1117C26.4741 12.7215 25.9258 12.5015 25.3537 12.4999H16.2227V22.5874L13.5014 24.0843L13.4933 24.0874L13.4739 24.0983C13.3098 24.1897 13.1736 24.3211 13.0789 24.4794C12.9842 24.6376 12.9344 24.8172 12.9344 24.9999V25.0077V24.9999V39.0624H25.3537C25.9258 39.0607 26.4741 38.8408 26.8786 38.4505C27.2832 38.0603 27.5112 37.5315 27.5129 36.9796Z" fill="black"></path><path opacity="0.2" d="M25.8931 36.9796V14.5827C25.8914 14.0308 25.6634 13.502 25.2588 13.1117C24.8542 12.7215 24.306 12.5015 23.7339 12.4999H16.2227V22.5874L13.5014 24.0843L13.4933 24.0874L13.4739 24.0983C13.3098 24.1897 13.1736 24.3211 13.0789 24.4794C12.9842 24.6376 12.9344 24.8172 12.9344 24.9999V25.0077V24.9999V39.0624H23.7339C24.306 39.0607 24.8542 38.8408 25.2588 38.4505C25.6634 38.0603 25.8914 37.5315 25.8931 36.9796Z" fill="black"></path><path d="M2.13434 12.4999H23.7332C24.3059 12.4999 24.8551 12.7193 25.26 13.1099C25.6649 13.5005 25.8924 14.0303 25.8924 14.5827V35.4171C25.8924 35.9695 25.6649 36.4992 25.26 36.8898C24.8551 37.2804 24.3059 37.4999 23.7332 37.4999H2.13434C1.56167 37.4999 1.01246 37.2804 0.607524 36.8898C0.202588 36.4992 -0.0249023 35.9695 -0.0249023 35.4171L-0.0249023 14.5827C-0.0249023 14.0303 0.202588 13.5005 0.607524 13.1099C1.01246 12.7193 1.56167 12.4999 2.13434 12.4999Z" fill="#0078D4"></path><path d="M6.23959 21.0438C6.81333 19.8643 7.73959 18.8772 8.89936 18.2094C10.1842 17.4999 11.6472 17.1463 13.1271 17.1876C14.4974 17.1589 15.8495 17.494 17.0358 18.1563C18.1524 18.7979 19.0517 19.7386 19.6243 20.8641C20.248 22.1047 20.5589 23.47 20.5314 24.8485C20.5614 26.2884 20.2413 27.715 19.5967 29.0141C19.0117 30.1796 18.0853 31.1542 16.9321 31.8172C15.6993 32.5006 14.2959 32.8449 12.8744 32.8125C11.474 32.8447 10.0913 32.5058 8.87668 31.8328C7.75113 31.1902 6.84124 30.2485 6.25579 29.1203C5.62776 27.8981 5.3128 26.5484 5.33734 25.1844C5.31018 23.7562 5.61864 22.3406 6.23959 21.0438ZM9.0743 27.6969C9.37995 28.4425 9.89833 29.0894 10.5694 29.5625C11.2532 30.0242 12.0724 30.2624 12.9068 30.2422C13.7957 30.2756 14.6718 30.0293 15.403 29.5407C16.0666 29.0678 16.5718 28.4175 16.856 27.6704C17.1746 26.8379 17.3317 25.9561 17.3192 25.0688C17.3291 24.1731 17.1812 23.2823 16.8819 22.4344C16.6178 21.6716 16.1306 20.9988 15.4791 20.4969C14.7672 19.9837 13.8937 19.7227 13.0056 19.7579C12.1531 19.7371 11.3155 19.9772 10.6131 20.4438C9.9289 20.9178 9.39855 21.5697 9.08402 22.3235C8.38823 24.0516 8.38419 25.9677 9.07268 27.6985L9.0743 27.6969Z" fill="white"></path></g><defs><clipPath id="clip0_2042_57382"><rect width="51.7857" height="50" fill="white"></rect></clipPath></defs></svg>