<svg xmlns="http://www.w3.org/2000/svg" width="52" height="50" viewBox="0 0 52 50" fill="none"><path d="M36.8571 18.1706V13.4073C37.509 13.1131 38.061 12.6462 38.4488 12.0609C38.8366 11.4756 39.0443 10.7959 39.0476 10.1011V9.99185C39.0476 7.96602 37.3467 6.32375 35.2487 6.32375H35.1353C33.0371 6.32375 31.3362 7.96602 31.3362 9.99185V10.1011C31.3395 10.7959 31.5472 11.4756 31.935 12.0609C32.3227 12.6462 32.8747 13.1131 33.5267 13.4073V18.1706C31.6529 18.4476 29.8883 19.1978 28.4114 20.3451L14.8813 10.1699C14.9778 9.83364 15.0281 9.48785 15.0338 9.14077C15.0355 8.32328 14.786 7.52369 14.3169 6.84312C13.8478 6.16256 13.1803 5.6316 12.3986 5.31742C11.617 5.00323 10.7564 4.91993 9.92567 5.07804C9.09498 5.23616 8.33151 5.62859 7.73185 6.20571C7.13218 6.78282 6.72326 7.51868 6.5568 8.32021C6.39035 9.12175 6.47383 9.95294 6.7967 10.7087C7.11958 11.4644 7.66733 12.1107 8.37067 12.5658C9.07401 13.0209 9.90135 13.2643 10.748 13.2654C11.4887 13.262 12.2155 13.0711 12.8559 12.7117L26.1791 22.7217C23.7297 26.2944 23.7952 30.9506 26.3442 34.4579L22.2919 38.3715C21.9642 38.2705 21.6231 38.2167 21.2792 38.2122C19.3385 38.2138 17.7664 39.7334 17.7669 41.6072C17.7674 43.4807 19.3405 44.9995 21.281 45C23.2217 45.0005 24.7956 43.4825 24.7972 41.6088C24.7927 41.2768 24.737 40.9473 24.632 40.6311L28.6408 36.7591C32.2227 39.4215 37.1422 39.6509 40.9732 37.3342C44.8041 35.0173 46.7374 30.6434 45.8195 26.3699C44.9015 22.0963 41.3263 18.8255 36.8571 18.1704V18.1706ZM35.1955 33.8365C34.4549 33.8558 33.7178 33.7316 33.0278 33.4712C32.3377 33.2109 31.7087 32.8197 31.1778 32.3207C30.6469 31.8217 30.225 31.2251 29.9369 30.5661C29.6488 29.9071 29.5003 29.1991 29.5003 28.4837C29.5003 27.7684 29.6488 27.0604 29.9369 26.4013C30.225 25.7423 30.6469 25.1457 31.1778 24.6468C31.7087 24.1478 32.3377 23.7566 33.0278 23.4963C33.7178 23.2359 34.4549 23.1117 35.1955 23.1309C38.18 23.2318 40.5458 25.5963 40.5475 28.4799C40.5489 31.3631 38.1855 33.73 35.201 33.8338" fill="#FF7A59"></path></svg>