<svg xmlns="http://www.w3.org/2000/svg" width="52" height="50" viewBox="0 0 52 50" fill="none"><path fill-rule="evenodd" clip-rule="evenodd" d="M23.3541 39.1999C21.579 40.7339 19.2348 41.6667 16.665 41.6667C11.1237 41.6667 6.63156 37.3295 6.63156 31.9792C6.63156 31.6062 6.6534 31.2381 6.69591 30.876C3.75125 29.4697 1.72632 26.5396 1.72632 23.1529C1.72632 18.3971 5.71933 14.5418 10.645 14.5418C11.9851 14.5418 13.2561 14.8272 14.3965 15.3384C16.4552 11.7808 20.3939 9.37524 24.9146 9.37524C30.2076 9.37524 34.7029 12.6729 36.3168 17.2564C37.6525 16.6211 39.1558 16.2641 40.7454 16.2641C46.2867 16.2641 50.7789 20.6014 50.7789 25.9516C50.7789 31.3019 46.2867 35.6391 40.7454 35.6391C40.2799 35.6391 39.8219 35.6085 39.3733 35.5493C37.9012 39.1327 34.2786 41.6667 30.0431 41.6667C27.4733 41.6667 25.1292 40.7339 23.3541 39.1999Z" fill="#199EDF"></path></svg>