<svg xmlns="http://www.w3.org/2000/svg" width="52" height="50" viewBox="0 0 52 50" fill="none"><path d="M23.685 6.25C30.0581 6.25 39.688 8.12673 44.1707 12.4304C45.3063 13.5217 46.7922 15.6589 46.7922 18.789C46.7922 24.354 42.1219 32.8924 36.965 37.8447C34.299 40.4046 30.0581 43.75 24.3536 43.75C18.777 43.75 14.5181 40.1135 13.2851 38.9293C8.56195 34.3943 5.17871 27.5107 5.17871 21.0924C5.17871 17.0425 6.38105 13.5004 9.44876 10.5564C12.2899 7.829 17.1854 6.25 23.685 6.25ZM31.5732 28.4438C33.7249 26.377 34.3046 23.8317 34.3046 22.4308C34.3046 21.4153 34.0266 19.9254 32.7033 18.6561C30.6739 16.7076 28.4263 16.1573 25.9813 16.1573C22.8844 16.1573 20.8036 17.097 19.4178 18.4288C18.3308 19.4722 17.3912 21.0764 17.3912 23.3559C17.3912 25.634 18.6561 27.835 20.0349 29.1575C21.3082 30.3803 23.3097 31.2854 25.3252 31.2854C27.3407 31.2854 29.4215 30.5106 31.5732 28.4438Z" fill="#5952FF"></path></svg>