<svg xmlns="http://www.w3.org/2000/svg" width="52" height="50" viewBox="0 0 52 50" fill="none"><path d="M32.3659 25.0109C32.3668 26.8138 32.0299 28.602 31.3716 30.2891C29.6236 30.9246 27.7712 31.2503 25.9034 31.2506H25.8815C23.9582 31.2482 22.1153 30.9088 20.4149 30.2898C19.7562 28.6025 19.419 26.8141 19.4196 25.0109V24.9891C19.4187 23.1865 19.7552 21.3987 20.4129 19.7117C22.1608 19.075 24.0136 18.7492 25.8817 18.75H25.9036C27.7715 18.7491 29.6241 19.0749 31.3718 19.7115C32.0302 21.3983 32.367 23.1863 32.3661 24.9889V25.0107L32.3659 25.0109ZM51.426 20.8334H36.3119L46.9986 10.5145C46.1598 9.37679 45.2241 8.3087 44.2013 7.32129V7.32051C43.1785 6.33416 42.0726 5.43157 40.8949 4.62207L30.2075 14.941V0.348047C28.786 0.117173 27.3472 0.000757207 25.9058 0L25.8791 0C24.4129 0.00078125 22.9769 0.121094 21.5774 0.348047V14.941L10.89 4.62207C9.71213 5.43135 8.60667 6.33458 7.58519 7.32227L7.57953 7.32617C6.55849 8.31235 5.62414 9.37878 4.78613 10.5145L15.4744 20.8334H0.360477C0.360477 20.8334 0 23.5742 0 24.9914V25.0086C0 26.4258 0.124407 27.8146 0.360477 29.1666H15.4746L4.78633 39.4855C6.46768 41.7637 8.53048 43.7553 10.89 45.3787L21.5774 35.059V49.6527C22.9973 49.8825 24.4344 49.9986 25.874 50H25.9107C27.3503 49.9987 28.7874 49.8826 30.2073 49.6527V35.059L40.8957 45.3787C42.0731 44.5689 43.1788 43.6661 44.2013 42.6795L44.2038 42.6772C45.2251 41.6897 46.1599 40.6222 46.9986 39.4855L36.3103 29.1666H51.426C51.6613 27.817 51.7841 26.4322 51.7857 25.0182V24.9818C51.7841 23.5678 51.6613 22.183 51.426 20.8334Z" fill="#FF4A00"></path></svg>