<svg xmlns="http://www.w3.org/2000/svg" width="216" height="62" viewBox="0 0 216 62" fill="none"><rect width="216" height="62" fill="white"></rect><path d="M186.969 24.2004V21.4328H183.532V17.1296L183.417 17.1654L180.189 18.1531L180.125 18.1726V21.4328H175.031V19.6164C175.031 18.7708 175.22 18.1235 175.593 17.6922C175.963 17.2656 176.492 17.0488 177.166 17.0488C177.652 17.0488 178.153 17.1632 178.66 17.3893L178.786 17.4458V14.5308L178.727 14.5091C178.255 14.3396 177.614 14.2539 176.818 14.2539C175.816 14.2539 174.905 14.4721 174.111 14.9048C173.316 15.3375 172.691 15.9556 172.254 16.7415C171.817 17.5266 171.596 18.4331 171.596 19.4362V21.4333H169.203V24.2008H171.596V35.8599H175.03V24.2008H180.124V31.6106C180.124 34.6621 181.563 36.2083 184.401 36.2083C184.868 36.2083 185.359 36.1531 185.86 36.0463C186.37 35.9368 186.717 35.8264 186.922 35.7098L186.968 35.6829V32.8897L186.828 32.982C186.641 33.1061 186.41 33.2085 186.138 33.2836C185.864 33.3604 185.636 33.3993 185.459 33.3993C184.794 33.3993 184.302 33.22 183.997 32.8663C183.688 32.5091 183.531 31.8848 183.531 31.0123V24.2012L186.969 24.2004ZM161.534 33.3984C160.288 33.3984 159.305 32.9851 158.612 32.1705C157.915 31.3519 157.562 30.1854 157.562 28.7022C157.562 27.1723 157.915 25.9758 158.613 25.1422C159.306 24.3147 160.279 23.8948 161.507 23.8948C162.698 23.8948 163.646 24.2957 164.325 25.0878C165.007 25.8835 165.354 27.0717 165.354 28.6192C165.354 30.1862 165.028 31.389 164.386 32.1948C163.748 32.9931 162.788 33.3984 161.534 33.3984ZM161.688 21.0849C159.309 21.0849 157.42 21.7821 156.073 23.1566C154.727 24.532 154.044 26.435 154.044 28.8135C154.044 31.072 154.711 32.8884 156.024 34.213C157.338 35.5367 159.126 36.2083 161.338 36.2083C163.645 36.2083 165.496 35.5014 166.842 34.1084C168.189 32.7153 168.87 30.83 168.87 28.5075C168.87 26.2129 168.231 24.3827 166.967 23.0674C165.704 21.7521 163.927 21.0849 161.688 21.0849ZM148.507 21.0849C146.889 21.0849 145.551 21.4986 144.528 22.315C143.499 23.1358 142.978 24.2127 142.978 25.5157C142.978 26.1934 143.09 26.7944 143.311 27.3048C143.536 27.817 143.879 28.2678 144.338 28.6457C144.793 29.0215 145.495 29.414 146.426 29.814C147.207 30.1359 147.791 30.4083 148.162 30.6229C148.524 30.8335 148.782 31.0446 148.927 31.2508C149.067 31.4526 149.139 31.7276 149.139 32.0685C149.139 33.0377 148.413 33.5101 146.92 33.5101C146.367 33.5101 145.734 33.394 145.043 33.1675C144.35 32.9383 143.703 32.6107 143.12 32.1908L142.978 32.0897V35.3963L143.03 35.4215C143.516 35.6462 144.129 35.8357 144.851 35.9836C145.571 36.1328 146.226 36.2088 146.795 36.2088C148.551 36.2088 149.965 35.7928 150.996 34.9711C152.035 34.145 152.561 33.0434 152.561 31.6941C152.561 30.7227 152.278 29.8882 151.719 29.2153C151.165 28.5481 150.202 27.9366 148.86 27.3949C147.79 26.9652 147.105 26.6094 146.823 26.3361C146.552 26.0711 146.412 25.6981 146.412 25.2247C146.412 24.8048 146.584 24.4693 146.934 24.1968C147.287 23.9231 147.779 23.784 148.396 23.784C148.969 23.784 149.554 23.8745 150.136 24.0511C150.717 24.2282 151.229 24.4653 151.655 24.7558L151.795 24.8516V21.7141L151.742 21.6907C151.347 21.522 150.829 21.3776 150.198 21.2602C149.571 21.1436 149.002 21.0849 148.507 21.0849ZM134.024 33.3984C132.778 33.3984 131.794 32.9851 131.103 32.1705C130.405 31.3519 130.052 30.1854 130.052 28.7022C130.052 27.1723 130.405 25.9758 131.103 25.1422C131.795 24.3147 132.768 23.8948 133.997 23.8948C135.188 23.8948 136.135 24.2957 136.815 25.0878C137.497 25.8835 137.843 27.0717 137.843 28.6192C137.843 30.1862 137.518 31.389 136.876 32.1948C136.237 32.9931 135.278 33.3984 134.024 33.3984ZM134.177 21.0849C131.797 21.0849 129.909 21.7821 128.563 23.1566C127.216 24.532 126.533 26.435 126.533 28.8135C126.533 31.0728 127.2 32.8884 128.513 34.213C129.827 35.5372 131.616 36.2083 133.828 36.2083C136.134 36.2083 137.986 35.5014 139.332 34.1084C140.677 32.7153 141.36 30.83 141.36 28.5075C141.36 26.2129 140.721 24.3827 139.456 23.0674C138.194 21.7521 136.418 21.0849 134.177 21.0849ZM121.32 23.931V21.4324H117.926V35.8591H121.32V28.4793C121.32 27.224 121.605 26.193 122.166 25.415C122.72 24.6454 123.459 24.2556 124.361 24.2556C124.666 24.2556 125.009 24.3059 125.381 24.4057C125.749 24.505 126.016 24.6123 126.172 24.7253L126.315 24.8287V21.4072L126.259 21.3838C125.943 21.2496 125.496 21.1816 124.931 21.1816C124.078 21.1816 123.315 21.4554 122.661 21.9949C122.087 22.4691 121.674 23.1195 121.356 23.9301L121.32 23.931ZM111.851 21.0849C110.295 21.0849 108.906 21.4187 107.726 22.077C106.542 22.7362 105.628 23.678 105.005 24.8759C104.385 26.0711 104.07 27.4664 104.07 29.0219C104.07 30.3854 104.375 31.6358 104.978 32.7387C105.582 33.8426 106.436 34.7067 107.517 35.3054C108.597 35.9037 109.844 36.2074 111.226 36.2074C112.839 36.2074 114.214 35.8856 115.318 35.2484L115.363 35.2232V32.1144L115.221 32.2173C114.721 32.582 114.162 32.8725 113.561 33.0823C112.961 33.2915 112.413 33.3971 111.934 33.3971C110.603 33.3971 109.535 32.9811 108.76 32.1595C107.982 31.336 107.587 30.1818 107.587 28.7283C107.587 27.2655 107.999 26.0809 108.809 25.2066C109.617 24.335 110.688 23.8931 111.991 23.8931C113.106 23.8931 114.193 24.2706 115.22 25.0163L115.363 25.1196V21.8439L115.317 21.8179C114.93 21.6011 114.403 21.4222 113.747 21.2867C113.096 21.1533 112.457 21.0849 111.851 21.0849ZM101.733 21.4328H98.3397V35.8599H101.733V21.4328ZM100.071 15.2867C99.5126 15.2867 99.0261 15.477 98.6262 15.8536C98.2241 16.2316 98.0201 16.7075 98.0201 17.2687C98.0201 17.8211 98.2219 18.2882 98.6187 18.6565C99.0142 19.0234 99.5029 19.2088 100.071 19.2088C100.64 19.2088 101.129 19.0234 101.53 18.6569C101.933 18.2887 102.137 17.8215 102.137 17.2687C102.137 16.727 101.938 16.2563 101.547 15.8691C101.155 15.4827 100.658 15.2867 100.071 15.2867ZM91.6059 20.3683V35.8599H95.0684V15.7282H90.2768L84.1857 30.6812L78.2738 15.7282H73.2866V35.8599H76.5403V20.3665H76.652L82.8941 35.8591H85.3497L91.4942 20.3679L91.6059 20.3683Z" fill="#8B8B8B"></path><path d="M45.5955 24.965H29.6348V9H45.5951V24.965H45.5955Z" fill="#8B8B8B"></path><path d="M63.2169 24.965H47.2566V9H63.2169V24.965Z" fill="#8B8B8B"></path><path d="M45.5951 42.5978H29.6343V26.6328H45.5946V42.5978H45.5951Z" fill="#8B8B8B"></path><path d="M63.2169 42.5978H47.2566V26.6328H63.2169V42.5978Z" fill="#8B8B8B"></path></svg>