<svg xmlns="http://www.w3.org/2000/svg" width="216" height="62" viewBox="0 0 216 62" fill="none"><rect width="216" height="62" fill="white"></rect><path fill-rule="evenodd" clip-rule="evenodd" d="M62 49H107.974L152.966 4H62V49Z" fill="#8B8B8B"></path><path fill-rule="evenodd" clip-rule="evenodd" d="M115.984 13H107L107.03 34.13L99.207 12.993H91.45L84.772 30.646C84.062 26.154 79.418 24.604 75.764 23.443C73.351 22.668 70.79 21.528 70.816 20.268C70.836 19.234 72.186 18.275 74.869 18.418C76.669 18.515 78.259 18.66 81.422 20.188L84.532 14.768C81.648 13.3 77.66 12.373 74.39 12.37H74.37C70.557 12.37 67.382 13.605 65.414 15.64C64.042 17.06 63.302 18.866 63.272 20.863C63.222 23.611 64.229 25.559 66.345 27.116C68.133 28.426 70.42 29.276 72.435 29.9C74.92 30.67 76.95 31.34 76.925 32.766C76.905 33.286 76.709 33.772 76.335 34.164C75.715 34.804 74.765 35.044 73.45 35.07C70.913 35.124 69.033 34.725 66.037 32.954L63.27 38.444C66.263 40.146 69.44 41 73.05 41L73.862 40.994C77.004 40.937 79.554 40.184 81.58 38.554C81.696 38.461 81.8 38.367 81.908 38.272L81.568 40.024L89.148 40L90.508 36.518C91.938 37.006 93.564 37.276 95.29 37.276C96.972 37.276 98.554 37.02 99.957 36.56L100.905 40L114.505 40.013L114.538 32.075H117.432C124.427 32.075 128.562 28.515 128.562 22.545C128.56 15.896 124.54 13 115.984 13ZM95.29 31.062C94.245 31.062 93.265 30.88 92.422 30.56L95.258 21.605H95.313L98.103 30.585C97.263 30.885 96.306 31.062 95.289 31.062H95.29ZM116.51 25.917H114.536V18.7H116.511C119.141 18.7 121.241 19.576 121.241 22.262C121.239 25.042 119.141 25.917 116.511 25.917" fill="white"></path></svg>