<svg xmlns="http://www.w3.org/2000/svg" width="216" height="62" viewBox="0 0 216 62" fill="none"><rect width="216" height="62" fill="white"></rect><path d="M42.1783 16.01H42.1501V24.5696H42.1783C43.9757 24.5696 45.6995 25.2772 46.9705 26.5367C48.2415 27.7963 48.9555 29.5046 48.9555 31.2859C48.9555 33.0671 48.2415 34.7755 46.9705 36.035C45.6995 37.2946 43.9757 38.0022 42.1783 38.0022H42.1501V46.5586H42.1783C44.2021 46.5586 46.2062 46.1636 48.0759 45.3961C49.9457 44.6285 51.6447 43.5036 53.0757 42.0854C54.5068 40.6671 55.642 38.9835 56.4165 37.1305C57.191 35.2775 57.5896 33.2915 57.5896 31.2859C57.5896 29.2802 57.191 27.2942 56.4165 25.4412C55.642 23.5883 54.5068 21.9046 53.0757 20.4864C51.6447 19.0682 49.9457 17.9432 48.0759 17.1757C46.2062 16.4081 44.2021 16.0131 42.1783 16.0131V16.01Z" fill="#8B8B8B"></path><path d="M38.4113 35.5455H38.4395V26.9953H38.4113C36.6139 26.9953 34.8901 26.2877 33.6191 25.0281C32.3481 23.7686 31.6341 22.0602 31.6341 20.279C31.6341 18.4977 32.3481 16.7894 33.6191 15.5298C34.8901 14.2703 36.6139 13.5627 38.4113 13.5627H38.4395V5H38.4113C34.324 5 30.4041 6.60909 27.5139 9.47329C24.6237 12.3375 23 16.2222 23 20.2728C23 24.3234 24.6237 28.208 27.5139 31.0722C30.4041 33.9364 34.324 35.5455 38.4113 35.5455Z" fill="#8B8B8B"></path><path d="M83.6889 16.072H88.6687V35.5145H83.6889V16.072ZM88.6687 11.0874C88.6687 10.5972 88.522 10.1181 88.2472 9.71052C87.9724 9.30296 87.5818 8.9853 87.1249 8.79772C86.6679 8.61014 86.1651 8.56106 85.6799 8.65669C85.1948 8.75232 84.7492 8.98836 84.3995 9.33496C84.0497 9.68156 83.8115 10.1232 83.715 10.6039C83.6186 11.0847 83.6681 11.583 83.8574 12.0358C84.0466 12.4887 84.3672 12.8758 84.7784 13.1481C85.1897 13.4204 85.6732 13.5657 86.1678 13.5657C86.8311 13.5657 87.4672 13.3046 87.9362 12.8399C88.4052 12.3751 88.6687 11.7447 88.6687 11.0874Z" fill="#8B8B8B"></path><path d="M120.773 15.9449C126.418 15.9449 130.264 20.1426 130.264 26.2827V27.3701H116.196C116.509 29.7431 118.431 31.7227 121.648 31.7227C123.411 31.7227 125.49 31.0256 126.706 29.8639L128.894 33.0517C127.019 34.7617 124.03 35.657 121.079 35.657C115.315 35.657 110.963 31.8094 110.963 25.784C110.97 20.3378 115.008 15.9449 120.773 15.9449ZM116.106 24.0305H125.44C125.321 22.243 124.068 19.87 120.773 19.87C117.675 19.87 116.34 22.1625 116.106 24.0305Z" fill="#8B8B8B"></path><path d="M146.394 23.8354C146.394 21.23 145.018 20.3378 142.902 20.3378C142.058 20.347 141.229 20.5522 140.479 20.9369C139.73 21.3216 139.082 21.875 138.588 22.5528V35.5455H133.608V16.0596H138.588V18.8477C139.418 17.9174 140.441 17.1763 141.587 16.6752C142.733 16.1741 143.975 15.925 145.228 15.945C149.385 15.945 151.386 18.2777 151.386 21.9302V35.5455H146.394V23.8354Z" fill="#8B8B8B"></path><path d="M183.509 15.9449C189.155 15.9449 193 20.1426 193 26.2827V27.3701H178.933C179.245 29.7431 181.168 31.7227 184.385 31.7227C186.148 31.7227 188.226 31.0256 189.442 29.8639L191.631 33.0517C189.755 34.7617 186.767 35.657 183.816 35.657C178.051 35.657 173.7 31.8094 173.7 25.784C173.706 20.3378 177.739 15.9449 183.509 15.9449ZM178.842 24.0305H188.176C188.054 22.243 186.804 19.87 183.509 19.87C180.411 19.87 179.076 22.1625 178.842 24.0305Z" fill="#8B8B8B"></path><path d="M65.8456 30.056C66.8177 30.5672 69.5968 31.7413 71.9351 31.7413C73.8357 31.7413 74.886 31.2239 74.886 30.056C74.886 28.7363 73.6356 28.1601 71.4787 27.7326C68.2213 27.113 63.8043 26.0008 63.8043 21.5367C63.8043 18.3892 65.9518 16.0255 71.9319 16.0255C74.5985 16.0342 77.2102 16.7775 79.4751 18.1724L77.465 21.5181C75.8445 20.3957 73.9183 19.7875 71.9413 19.774C70.0313 19.774 68.9685 20.4339 68.9716 21.5212C68.9716 22.7263 70.0626 23.1476 71.9194 23.4203C75.1986 23.9035 80.0471 25.4029 80.0471 30.0684C80.0471 33.4761 77.1712 35.5548 71.9194 35.5548C68.6277 35.5548 65.3829 34.5728 63.7917 33.5164L65.8456 30.056Z" fill="#8B8B8B"></path><path d="M94.0108 30.056C94.9799 30.5672 97.7621 31.7413 100.1 31.7413C101.998 31.7413 103.048 31.2239 103.048 30.056C103.048 28.7363 101.798 28.1601 99.6408 27.7326C96.3866 27.113 91.9664 26.0008 91.9664 21.5367C91.9664 18.3892 94.114 16.0255 100.094 16.0255C102.761 16.033 105.373 16.7764 107.637 18.1724L105.627 21.5181C104.007 20.3954 102.081 19.7871 100.103 19.774C98.1935 19.774 97.1306 20.4339 97.1337 21.5212C97.1337 22.7263 98.2247 23.1476 100.085 23.4203C103.361 23.9035 108.212 25.4029 108.212 30.0684C108.212 33.4761 105.34 35.5548 100.085 35.5548C96.7899 35.5548 93.5482 34.5728 91.957 33.5164L94.0108 30.056Z" fill="#8B8B8B"></path><path d="M156.744 30.056C157.716 30.5672 160.495 31.7413 162.837 31.7413C164.734 31.7413 165.785 31.2239 165.785 30.056C165.785 28.7363 164.534 28.1601 162.377 27.7326C159.123 27.113 154.703 26.0008 154.703 21.5367C154.703 18.3892 156.851 16.0255 162.831 16.0255C165.497 16.033 168.109 16.7764 170.374 18.1724L168.364 21.5181C166.743 20.3954 164.817 19.7871 162.84 19.774C160.93 19.774 159.867 20.4339 159.87 21.5212C159.87 22.7263 160.961 23.1476 162.818 23.4203C166.097 23.9035 170.946 25.4029 170.946 30.0684C170.946 33.4761 168.073 35.5548 162.818 35.5548C159.526 35.5548 156.282 34.5728 154.69 33.5164L156.744 30.056Z" fill="#8B8B8B"></path></svg>