<svg xmlns="http://www.w3.org/2000/svg" width="216" height="62" viewBox="0 0 216 62" fill="none"><rect width="216" height="62" fill="white"></rect><g clip-path="url(#clip0)"><path d="M61.9835 30.7107C62.423 31.8735 63.0314 32.8678 63.809 33.6935C64.5865 34.5192 65.5077 35.1511 66.5725 35.5893C67.6374 36.0275 68.7952 36.2465 70.046 36.2465C71.2631 36.2465 72.4039 36.019 73.4689 35.5639C74.5338 35.1089 75.4633 34.4686 76.2577 33.6429C77.0521 32.8171 77.6691 31.8314 78.1086 30.6854C78.5481 29.5395 78.7678 28.2589 78.7678 26.8433V5.00354H84.0921V40.3919H78.8185V37.1058C77.6353 38.3528 76.2408 39.3134 74.6351 39.9876C73.0292 40.6615 71.2969 40.9986 69.4376 40.9986C67.5444 40.9986 65.7781 40.6699 64.1385 40.0127C62.499 39.3555 61.0791 38.4203 59.8791 37.207C58.6791 35.9936 57.7325 34.5361 57.0395 32.834C56.3465 31.132 56 29.2363 56 27.1465V5.00354H61.3243V26.8433C61.3243 28.2589 61.544 29.5479 61.9835 30.7107ZM93.2697 5.00354V17.895C94.4529 16.7154 95.8221 15.7802 97.3771 15.0892C98.9321 14.3983 100.622 14.0528 102.448 14.0528C104.341 14.0528 106.116 14.4067 107.772 15.1144C109.428 15.8222 110.865 16.7827 112.082 17.9961C113.299 19.2095 114.263 20.6418 114.973 22.2932C115.682 23.9448 116.037 25.6974 116.037 27.551C116.037 29.4046 115.682 31.1488 114.973 32.7833C114.263 34.418 113.299 35.842 112.082 37.0552C110.865 38.2685 109.428 39.2291 107.772 39.9369C106.116 40.6446 104.341 40.9985 102.448 40.9985C100.622 40.9985 98.9236 40.653 97.3517 39.962C95.7798 39.2712 94.4021 38.3359 93.219 37.1563V40.3918H88.1483V5.00354H93.2697ZM93.8528 31.0393C94.3091 32.1179 94.9431 33.0615 95.7544 33.8704C96.5657 34.6793 97.5123 35.3197 98.594 35.7916C99.6758 36.2634 100.842 36.4993 102.093 36.4993C103.31 36.4993 104.459 36.2634 105.541 35.7916C106.623 35.3197 107.561 34.6794 108.355 33.8704C109.15 33.0616 109.783 32.1179 110.257 31.0393C110.73 29.9608 110.967 28.7981 110.967 27.551C110.967 26.304 110.73 25.1328 110.257 24.0374C109.783 22.942 109.15 21.99 108.355 21.1811C107.561 20.3723 106.623 19.7403 105.541 19.2853C104.459 18.8304 103.31 18.6028 102.093 18.6028C100.876 18.6028 99.7266 18.8303 98.6448 19.2853C97.5631 19.7404 96.6166 20.3723 95.8051 21.1811C94.9939 21.99 94.3515 22.942 93.8783 24.0374C93.405 25.1328 93.1684 26.304 93.1684 27.551C93.1683 28.7981 93.3965 29.9608 93.8528 31.0393ZM118.927 22.3439C119.603 20.7261 120.533 19.3022 121.716 18.0721C122.899 16.8419 124.302 15.873 125.925 15.1652C127.548 14.4574 129.305 14.1036 131.198 14.1036C133.058 14.1036 134.782 14.4407 136.371 15.1146C137.959 15.7887 139.329 16.724 140.478 17.9205C141.627 19.1169 142.523 20.5325 143.165 22.1671C143.808 23.8017 144.129 25.5796 144.129 27.5007V29.169H123.085C123.254 30.2138 123.592 31.1828 124.099 32.0758C124.607 32.9689 125.24 33.7441 126.001 34.4013C126.762 35.0586 127.624 35.5726 128.587 35.9432C129.551 36.314 130.573 36.4994 131.655 36.4994C134.731 36.4994 137.216 35.2355 139.109 32.7077L142.811 35.4376C141.526 37.1565 139.937 38.5047 138.044 39.482C136.151 40.4594 134.021 40.9481 131.655 40.9481C129.728 40.9481 127.928 40.611 126.255 39.937C124.581 39.263 123.128 38.3192 121.894 37.1058C120.66 35.8925 119.688 34.4686 118.978 32.834C118.268 31.1995 117.913 29.4215 117.913 27.5005C117.913 25.6806 118.251 23.9617 118.927 22.3439ZM126.052 20.3469C124.615 21.5434 123.66 23.1359 123.187 25.1244H138.957C138.517 23.1359 137.579 21.5434 136.143 20.3469C134.706 19.1506 133.024 18.5523 131.097 18.5523C129.17 18.5523 127.488 19.1506 126.052 20.3469ZM153.712 20.9283C152.631 22.1079 152.09 23.7088 152.09 25.731V40.3921H146.968V14.609H152.039V17.794C152.681 16.7492 153.518 15.9234 154.549 15.3168C155.58 14.71 156.805 14.4067 158.225 14.4067H160V19.1588H157.87C156.18 19.1589 154.794 19.7487 153.712 20.9283Z" fill="#8B8B8B"></path></g><defs><clipPath id="clip0"><rect width="104" height="36" fill="white" transform="translate(56 5)"></rect></clipPath></defs></svg>