<svg xmlns="http://www.w3.org/2000/svg" width="216" height="62" viewBox="0 0 216 62" fill="none"><rect width="216" height="62" fill="white"></rect><path d="M129.767 33.441C131.554 33.4811 133.284 32.8099 134.581 31.5737L136.967 34.1617C135.391 35.79 133.205 37 129.808 37C123.983 37 120.218 33.1161 120.218 27.8653C120.194 26.6618 120.412 25.4659 120.859 24.349C121.305 23.232 121.971 22.2167 122.816 21.3639C123.662 20.511 124.669 19.838 125.779 19.3849C126.889 18.9318 128.079 18.708 129.276 18.7268C135.06 18.7268 138.339 23.1485 138.049 29.2807H124.377C124.861 31.8276 126.645 33.4522 129.756 33.4522L129.767 33.441ZM133.919 26.3565C133.547 23.9776 132.135 22.2261 129.31 22.2261C126.682 22.2261 124.849 23.7199 124.377 26.3565H133.923H133.919ZM40 33.243L50.5193 22.5024H40.249V19.1339H55.3998V22.5697L44.8805 33.3065H55.5485V36.6788H40V33.243ZM67.3576 33.4372C69.1445 33.4774 70.8748 32.8062 72.1712 31.57L74.5575 34.158C72.9815 35.7863 70.7959 36.9963 67.3985 36.9963C61.5738 36.9963 57.8084 33.1123 57.8084 27.8615C57.7848 26.6581 58.0027 25.4622 58.4491 24.3452C58.8955 23.2282 59.5613 22.213 60.4067 21.3602C61.2521 20.5073 62.2598 19.8342 63.3697 19.3812C64.4797 18.9281 65.669 18.7043 66.8669 18.7231C72.6507 18.7231 75.9291 23.1448 75.6392 29.2769H61.9753C62.4585 31.8239 64.2427 33.4484 67.3539 33.4484L67.3576 33.4372ZM71.517 26.3528C71.1453 23.9739 69.7328 22.2224 66.9078 22.2224C64.2799 22.2224 62.4473 23.7162 61.9753 26.3528H71.5207H71.517ZM98.3653 27.8578C98.3653 22.256 102.54 18.7305 107.138 18.7305C108.241 18.7158 109.334 18.9438 110.34 19.3987C111.346 19.8535 112.241 20.5241 112.962 21.3634V11.0112H116.679V36.6303H112.962V34.214C112.255 35.0878 111.362 35.7906 110.347 36.2703C109.333 36.7499 108.225 36.9942 107.104 36.9851C102.644 36.9851 98.369 33.4372 98.369 27.8615L98.3653 27.8578ZM113.17 27.8242C113.141 26.7288 112.791 25.6665 112.164 24.7699C111.537 23.8734 110.661 23.1826 109.645 22.7838C108.629 22.385 107.519 22.2959 106.453 22.5278C105.387 22.7597 104.413 23.3022 103.652 24.0874C102.892 24.8726 102.378 25.8658 102.176 26.9426C101.975 28.0194 102.093 29.1321 102.518 30.1415C102.942 31.1509 103.653 32.0122 104.562 32.6177C105.471 33.2231 106.538 33.5459 107.628 33.5455C110.825 33.5455 113.167 30.9836 113.167 27.8242H113.17ZM140.48 32.9032L143.847 31.1479C144.293 31.9454 144.946 32.6055 145.737 33.057C146.529 33.5085 147.428 33.7342 148.338 33.7099C150.441 33.7099 151.534 32.6268 151.534 31.3944C151.534 29.9902 149.501 29.6765 147.289 29.2172C144.316 28.5823 141.219 27.6001 141.219 23.9888C141.219 21.214 143.847 18.6484 147.984 18.6857C151.244 18.6857 153.671 19.9853 155.047 22.0842L151.924 23.8021C151.493 23.1602 150.906 22.6395 150.218 22.2892C149.531 21.9389 148.766 21.7707 147.996 21.8003C145.996 21.8003 144.977 22.7825 144.977 23.9066C144.977 25.1689 146.59 25.52 149.118 26.0839C151.995 26.7188 155.251 27.6636 155.251 31.3123C155.251 33.7323 153.147 36.9963 148.167 36.9627C144.524 36.9627 141.959 35.4875 140.483 32.892L140.48 32.9032ZM165.351 28.8325L162.403 32.0629V36.6191H158.686V11H162.403V27.7794L170.294 19.0779H174.822L167.982 26.5843L175 36.6228H170.792L165.354 28.8325H165.351ZM87.1324 18.7268C82.7091 18.7268 79.0106 21.6024 79.0106 26.3827V36.634H82.802V26.8569C82.802 23.9813 84.4486 22.256 87.2625 22.256C90.0763 22.256 91.4739 23.9739 91.4739 26.8569V36.634H95.243V26.3827C95.243 21.6099 91.5259 18.7268 87.1212 18.7268" fill="#8B8B8B"></path></svg>